<?xml version="1.0" encoding="UTF-8"?>
<svg version="1.1" xmlns="http://www.w3.org/2000/svg" width="320" height="452">
<path d="M0 0 C3.28577294 0.00535975 6.5714089 0.00001679 9.85717773 -0.00634766 C20.10074298 -0.01051726 30.33103903 0.09517958 40.56616211 0.53271484 C41.84305153 0.58218765 41.84305153 0.58218765 43.14573669 0.63265991 C49.58507426 0.94942283 55.09638205 2.11790725 60.85522461 5.13037109 C61.78077148 5.61119141 62.70631836 6.09201172 63.65991211 6.58740234 C70.49802719 10.41325993 70.49802719 10.41325993 71.88256836 13.19287109 C73.12963177 15.67698133 74.39815849 15.94371984 76.85522461 17.13037109 C86.4552318 28.05037928 88.0066013 41.38758307 88.00048828 55.27880859 C88.00384689 56.38049377 88.00720551 57.48217896 88.01066589 58.61724854 C88.02013863 62.24663429 88.02211696 65.87597376 88.02319336 69.50537109 C88.02640777 72.0345054 88.02977198 74.56363952 88.03327942 77.09277344 C88.03926096 82.38851426 88.04116317 87.68423792 88.04052734 92.97998047 C88.03992622 99.08926451 88.05049014 105.19846036 88.06627101 111.30772209 C88.08094985 117.20183428 88.08451472 123.09591964 88.08391762 128.99005127 C88.08509692 131.49066529 88.08951589 133.99127998 88.09724998 136.49188232 C88.10705517 139.98864056 88.1041699 143.48517165 88.09814453 146.98193359 C88.10376404 148.01175354 88.10938354 149.04157349 88.11517334 150.1026001 C88.08584794 156.80540723 88.02614222 162.54873934 83.54272461 167.88037109 C78.42868308 172.16189424 75.14371711 173.74684173 68.42944336 173.55615234 C64.23707069 172.862725 61.0357863 170.89777158 57.85522461 168.13037109 C55.41378123 164.46820602 55.40859675 161.51011638 55.23632812 157.25585938 C55.19865861 156.46060411 55.16098909 155.66534885 55.12217808 154.84599495 C54.71076618 145.27407474 54.73002125 135.70125964 54.75756836 126.12255859 C54.75943954 124.17530352 54.76086012 122.22804796 54.76185608 120.28079224 C54.76562625 115.2208317 54.77540771 110.16090108 54.78656006 105.10095215 C54.79689426 99.91154383 54.8013791 94.72213055 54.80639648 89.53271484 C54.81703645 79.39858731 54.83404444 69.26448171 54.85522461 59.13037109 C53.20522461 59.13037109 51.55522461 59.13037109 49.85522461 59.13037109 C49.85598405 59.6925146 49.85674349 60.2546581 49.85752594 60.83383626 C49.90232851 94.18634232 49.93662116 127.53884081 49.95735527 160.89137025 C49.95985654 164.90031785 49.9624452 168.90926538 49.96508789 172.91821289 C49.96561251 173.71628761 49.96613713 174.51436234 49.96667765 175.33662114 C49.97536894 188.24150163 49.99113186 201.14636421 50.0095302 214.05123409 C50.0282648 227.30295117 50.03934885 240.5546589 50.0434016 253.80638868 C50.04613928 261.97662625 50.05477112 270.1468132 50.07105754 278.31703518 C50.0816684 283.92748143 50.08481599 289.53790169 50.08222736 295.14835723 C50.08095243 298.3803073 50.08395097 301.61215122 50.09363556 304.84408951 C50.18797266 337.96072565 50.18797266 337.96072565 44.73022461 344.31787109 C39.30957702 348.84254388 33.11057205 349.59481686 26.21850586 349.36865234 C20.8981008 348.83221481 15.94128076 348.0812981 11.92553711 344.32568359 C7.36961321 338.54903367 6.72928752 333.7076541 6.73497009 326.41691589 C6.73411567 325.75519184 6.73326124 325.09346779 6.73238093 324.41169149 C6.73073847 322.20224889 6.73622722 319.99288282 6.74169922 317.78344727 C6.74198138 316.19652305 6.74182278 314.6095987 6.74125671 313.02267456 C6.74096988 308.71937743 6.74684824 304.41610818 6.75383067 300.11281753 C6.76008314 295.61381277 6.76066951 291.11480738 6.76185608 286.61579895 C6.7649638 278.09841916 6.77316968 269.58105222 6.78320557 261.06367809 C6.79438404 251.36604586 6.79988153 241.66841302 6.804901 231.97077596 C6.81535274 212.02396717 6.83294139 192.07716994 6.85522461 172.13037109 C5.20522461 172.13037109 3.55522461 172.13037109 1.85522461 172.13037109 C1.8561464 172.82977058 1.8570682 173.52917007 1.85801792 174.24976349 C1.8802428 191.38253277 1.89671801 208.51529833 1.90703678 225.64807892 C1.91216134 233.93384829 1.91912947 242.21960796 1.93066406 250.50537109 C1.94072969 257.73945864 1.94710584 264.97353914 1.9493131 272.2076335 C1.95060036 276.02690473 1.95355676 279.84615584 1.96095467 283.66542053 C1.97599435 291.91701082 1.96129569 300.16700926 1.88637161 308.41836548 C1.86591331 310.85652358 1.8532063 313.29476144 1.84897995 315.73300171 C1.83745578 319.03268715 1.78699485 322.32936413 1.72412109 325.62841797 C1.72716027 326.57136971 1.73019945 327.51432144 1.73333073 328.48584747 C1.53614661 335.34844691 -0.59761174 339.96821955 -5.14477539 345.13037109 C-12.07611179 349.65695813 -20.28341077 350.08625672 -28.32446289 348.77490234 C-33.47109377 347.28298016 -36.7057979 344.28344585 -39.69087315 339.88529491 C-45.43111855 329.00840216 -42.27642311 310.28588735 -42.25830078 298.32836914 C-42.2580184 295.71564739 -42.25817765 293.10292556 -42.25874329 290.49020386 C-42.25926505 284.88645128 -42.25615473 279.28271043 -42.25050545 273.6789608 C-42.24234312 265.5770993 -42.2397704 257.47524342 -42.23851746 249.37337825 C-42.23633434 236.22539675 -42.22969441 223.07742148 -42.22021484 209.92944336 C-42.21102152 197.16512076 -42.2039501 184.40079986 -42.19970703 171.63647461 C-42.19944431 170.84833619 -42.19918158 170.06019776 -42.1989109 169.24817636 C-42.19760577 165.29391573 -42.19634208 161.3396551 -42.195099 157.38539445 C-42.18474946 124.63371546 -42.16715138 91.88204411 -42.14477539 59.13037109 C-43.79477539 59.13037109 -45.44477539 59.13037109 -47.14477539 59.13037109 C-47.13811356 60.37794189 -47.13145172 61.6255127 -47.12458801 62.91088867 C-47.06371214 74.68128517 -47.01877157 86.45164963 -46.98933887 98.22216797 C-46.97369845 104.27317885 -46.95248953 110.32406239 -46.91845703 116.375 C-46.88580613 122.21700285 -46.86791017 128.05888339 -46.86014366 133.90097046 C-46.85461048 136.12724736 -46.84380553 138.35351774 -46.82758522 140.57974243 C-46.80573513 143.70353542 -46.80281168 146.82682619 -46.80419922 149.95068359 C-46.79341339 150.86634598 -46.78262756 151.78200836 -46.77151489 152.72541809 C-46.80160647 159.00662193 -47.44084286 165.13294012 -51.83618164 170.00537109 C-57.22534674 173.24562067 -61.89711133 174.14292355 -68.14477539 173.13037109 C-71.08227539 171.75537109 -71.08227539 171.75537109 -73.14477539 170.13037109 C-74.13477539 169.47037109 -75.12477539 168.81037109 -76.14477539 168.13037109 C-76.14477539 167.47037109 -76.14477539 166.81037109 -76.14477539 166.13037109 C-76.80477539 166.13037109 -77.46477539 166.13037109 -78.14477539 166.13037109 C-82.95164033 156.51664122 -80.28917201 140.25965565 -80.27758789 129.68115234 C-80.27826305 127.49700408 -80.27923485 125.31285589 -80.28048706 123.12870789 C-80.28195559 118.56390666 -80.27983778 113.9991251 -80.27514648 109.43432617 C-80.26946675 103.6295352 -80.27272248 97.82479066 -80.27871895 92.02000141 C-80.28236199 87.51140504 -80.28116863 83.00281936 -80.27859116 78.49422264 C-80.27793132 76.35634544 -80.27871671 74.21846721 -80.28107071 72.0805912 C-80.31320906 34.67901327 -80.31320906 34.67901327 -75.76977539 26.75537109 C-75.4174585 26.10455566 -75.0651416 25.45374023 -74.70214844 24.78320312 C-68.30483308 13.58410565 -59.36848027 6.37786536 -47.14477539 2.13037109 C-42.61900152 1.01042157 -38.06119039 0.79645648 -33.42211914 0.57568359 C-32.55231918 0.533638 -31.68251923 0.49159241 -30.78636169 0.44827271 C-20.52678626 -0.00136473 -10.26774301 -0.0198499 0 0 Z " fill="#000000" transform="translate(156.144775390625,89.86962890625)"/>
<path d="M0 0 C1.11375 0.9590625 1.11375 0.9590625 2.25 1.9375 C2.25 2.5975 2.25 3.2575 2.25 3.9375 C2.8275 4.164375 3.405 4.39125 4 4.625 C6.97391029 6.35978101 8.28591375 8.08064727 10.25 10.9375 C10.69988281 11.535625 11.14976562 12.13375 11.61328125 12.75 C17.04309562 21.31534098 16.55305184 32.18808959 15.25 41.9375 C12.52309552 51.76870826 6.15114627 57.92787307 -2.08984375 63.52734375 C-11.24813795 68.38218106 -24.68955788 68.68547266 -34.6875 66 C-44.30856126 61.90915506 -50.53383883 54.91816111 -54.7265625 45.5390625 C-58.00495101 37.20544897 -58.6801337 26.2582552 -55.328125 17.77734375 C-52.89253636 12.54015906 -50.18616812 7.73207356 -45.75 3.9375 C-45.09 3.9375 -44.43 3.9375 -43.75 3.9375 C-43.75 3.2775 -43.75 2.6175 -43.75 1.9375 C-32.56629874 -7.80918937 -12.25646837 -7.71810626 0 0 Z " fill="#000000" transform="translate(180.75,18.0625)"/>
</svg>
